<mxfile host="app.diagrams.net" modified="2023-12-15T03:55:48.857Z" agent="Mozilla/5.0 (Windows NT 10.0; Win64; x64) AppleWebKit/537.36 (KHTML, like Gecko) Chrome/120.0.0.0 Safari/537.36 Edg/120.0.0.0" version="22.1.8" etag="bk_zCShV33YXnLQsjDDd" type="github">
  <diagram name="第 1 页" id="dIbyIh6n0PqyOHcJ4RcU">
    <mxGraphModel>
      <root>
        <mxCell id="0" />
        <mxCell id="1" parent="0" />
      </root>
    </mxGraphModel>
  </diagram>
</mxfile>
